<?xml version="1.0" standalone="no"?>
<!DOCTYPE svg PUBLIC "-//W3C//DTD SVG 20010904//EN"
 "http://www.w3.org/TR/2001/REC-SVG-20010904/DTD/svg10.dtd">
<svg version="1.0" xmlns="http://www.w3.org/2000/svg"
 width="700.000000pt" height="700.000000pt" viewBox="0 0 700.000000 700.000000"
 preserveAspectRatio="xMidYMid meet">
<metadata>
Created by potrace 1.11, written by Peter Selinger 2001-2013
</metadata>
<g transform="translate(0.000000,700.000000) scale(0.100000,-0.100000)"
fill="#000000" stroke="none">
<path d="M3297 5705 c-1 -2 -42 -5 -92 -8 -152 -10 -310 -42 -487 -99 l-98
-32 -1 -55 c0 -31 -2 -189 -4 -351 -12 -779 -13 -1031 -5 -1028 5 2 143 134
307 294 164 160 343 335 398 389 688 670 775 755 775 764 0 12 -267 84 -360
97 -19 2 -44 6 -55 9 -52 10 -368 27 -378 20z"/>
<path d="M4179 5427 c-210 -205 -670 -652 -780 -758 -49 -47 -89 -87 -89 -90
0 -3 42 -5 93 -5 103 -1 983 -12 1595 -20 l404 -5 -48 88 c-213 395 -536 707
-935 904 -43 22 -80 39 -81 39 -2 0 -73 -69 -159 -153z"/>
<path d="M2350 5347 c-314 -175 -561 -400 -745 -679 -37 -57 -75 -114 -84
-128 -9 -14 -36 -65 -60 -114 l-43 -89 95 -96 c52 -53 124 -126 158 -162 35
-37 188 -194 340 -350 152 -156 306 -315 342 -354 37 -38 68 -65 68 -60 3 23
7 245 13 740 4 292 9 713 12 938 3 224 4 407 2 407 -2 0 -46 -24 -98 -53z"/>
<path d="M4125 4391 c4 -3 145 -147 313 -320 169 -173 341 -349 382 -391 63
-64 554 -567 705 -723 26 -27 51 -45 55 -40 9 9 59 168 66 211 3 15 11 54 19
87 7 33 16 92 20 130 4 39 8 81 11 95 12 70 4 365 -12 450 -2 14 -7 45 -10 70
-13 93 -97 396 -116 415 -5 5 -357 11 -1116 19 -178 2 -320 1 -317 -3z"/>
<path d="M1385 4003 c-15 -49 -29 -97 -30 -108 -2 -11 -10 -53 -19 -94 -17
-76 -20 -100 -33 -231 -12 -124 -5 -452 11 -478 2 -4 7 -32 10 -62 8 -69 38
-188 79 -312 l31 -98 36 0 c19 -1 184 -3 365 -5 800 -11 1046 -13 1040 -7 -4
4 -145 148 -313 320 -169 173 -368 376 -442 452 -74 76 -261 266 -415 424
-154 157 -283 286 -286 286 -4 0 -19 -39 -34 -87z"/>
<path d="M4579 3685 c-3 -19 -7 -283 -13 -770 -4 -269 -9 -676 -12 -903 l-5
-412 88 46 c106 56 243 147 338 224 117 96 307 290 339 348 6 9 19 27 31 40
32 34 143 216 193 315 l44 89 -105 107 c-57 58 -147 149 -198 202 -52 53 -227
233 -389 399 -162 166 -298 307 -302 314 -5 6 -8 7 -9 1z"/>
<path d="M4384 2867 c-6 -7 -163 -160 -349 -342 -186 -181 -384 -375 -440
-430 -56 -55 -235 -230 -398 -389 l-296 -290 37 -13 c58 -20 221 -61 291 -73
63 -11 80 -14 206 -28 108 -13 393 -5 480 13 11 3 36 7 55 10 95 14 182 35
313 78 l97 31 1 41 c0 22 2 191 4 375 3 184 7 491 9 683 3 191 4 347 3 347 -1
-1 -7 -6 -13 -13z"/>
<path d="M1610 2445 c0 -14 95 -182 144 -255 205 -307 492 -562 816 -725 l92
-46 26 23 c28 26 94 90 502 488 161 157 339 330 396 386 57 55 104 103 104
105 0 3 -141 6 -312 8 -315 3 -385 4 -1280 16 -269 3 -488 3 -488 0z"/>
</g>
</svg>
